<svg version="1.1" id="Layer_1" xmlns="http://www.w3.org/2000/svg"
	xmlns:xlink="http://www.w3.org/1999/xlink" x="0px" y="0px"
	width="100%" viewBox="0 0 1200 1200" enable-background="new 0 0 1200 1200" xml:space="preserve">
<path fill="#FFFFFF" opacity="1.000000" stroke="none" 
	d="
M1201.000000,442.000000 
	C1201.000000,695.333313 1201.000000,948.166687 1201.000000,1201.000000 
	C801.000000,1201.000000 401.000000,1201.000000 1.000000,1201.000000 
	C1.000000,801.000000 1.000000,401.000000 1.000000,1.000000 
	C401.000000,1.000000 801.000000,1.000000 1201.000000,1.000000 
	C1201.000000,147.833328 1201.000000,294.666656 1201.000000,442.000000 
M1180.910645,608.119812 
	C1180.281494,590.487793 1180.512085,572.772461 1178.812012,555.244324 
	C1176.540527,531.824341 1173.790527,508.356384 1169.412231,485.256653 
	C1162.378052,448.145294 1151.001587,412.193604 1136.323730,377.342377 
	C1112.493774,320.760590 1080.633057,269.167297 1040.527466,222.639694 
	C998.868469,174.310135 950.654236,133.829285 895.734192,101.402321 
	C812.213196,52.088203 721.830811,25.635258 625.018677,21.387508 
	C575.640137,19.220968 526.732117,23.564325 478.365112,33.969849 
	C433.528473,43.615852 390.406097,58.306286 349.191895,78.311241 
	C278.153229,112.792656 216.504013,159.736618 164.431580,219.179382 
	C128.857101,259.789062 99.483009,304.482483 76.404587,353.265656 
	C52.628105,403.524353 36.252277,456.120605 28.022766,511.138519 
	C25.567873,527.550598 23.546097,544.076233 22.418678,560.624268 
	C21.322687,576.711060 21.627832,592.893311 21.183819,609.930603 
	C21.768103,638.944885 24.224386,667.784790 28.979393,696.429016 
	C36.773460,743.380493 50.087341,788.710388 69.175713,832.289856 
	C103.409134,910.446106 152.464355,977.907410 216.211227,1034.627075 
	C265.241821,1078.252808 320.151001,1112.558594 380.839539,1137.533203 
	C441.367889,1162.441650 504.378784,1176.519409 569.723022,1180.032959 
	C613.972473,1182.412476 657.923706,1179.717285 701.601929,1172.084717 
	C756.158264,1162.551392 808.240295,1145.523682 857.816711,1120.916992 
	C933.655090,1083.275513 998.208801,1031.446289 1051.627319,965.784302 
	C1086.911987,922.412170 1115.274292,874.840271 1136.713013,823.223083 
	C1155.802002,777.263306 1169.280884,729.659790 1175.210083,680.200317 
	C1178.039551,656.599548 1178.917480,632.764893 1180.910645,608.119812 
z"/>
<path fill="#242021" opacity="1.000000" stroke="none" 
	d="
M21.317722,609.033630 
	C21.627832,592.893311 21.322687,576.711060 22.418678,560.624268 
	C23.546097,544.076233 25.567873,527.550598 28.022766,511.138519 
	C36.252277,456.120605 52.628105,403.524353 76.404587,353.265656 
	C99.483009,304.482483 128.857101,259.789062 164.431580,219.179382 
	C216.504013,159.736618 278.153229,112.792656 349.191895,78.311241 
	C390.406097,58.306286 433.528473,43.615852 478.365112,33.969849 
	C526.732117,23.564325 575.640137,19.220968 625.018677,21.387508 
	C721.830811,25.635258 812.213196,52.088203 895.734192,101.402321 
	C950.654236,133.829285 998.868469,174.310135 1040.527466,222.639694 
	C1080.633057,269.167297 1112.493774,320.760590 1136.323730,377.342377 
	C1151.001587,412.193604 1162.378052,448.145294 1169.412231,485.256653 
	C1173.790527,508.356384 1176.540527,531.824341 1178.812012,555.244324 
	C1180.512085,572.772461 1180.281494,590.487793 1180.480957,608.665894 
	C1179.688599,609.529724 1179.171875,609.775696 1178.985474,610.175659 
	C1174.156128,620.535400 1165.689697,624.366943 1154.702637,624.031494 
	C1147.880371,623.823120 1141.047363,623.969910 1133.736328,623.942383 
	C1069.637939,623.927368 1006.022339,623.927368 942.444458,623.927368 
	C929.500977,805.856201 777.638550,932.197205 625.539673,942.026794 
	C546.920532,947.107605 474.659668,927.982788 410.082886,883.143555 
	C319.813477,820.464539 270.254303,733.341797 259.323883,623.956726 
	C195.408051,623.956726 131.592255,623.956726 67.323128,623.993591 
	C59.412125,624.018372 51.952557,624.107849 44.497284,623.968079 
	C35.379108,623.797180 28.274193,620.083252 23.857635,611.796936 
	C23.287983,610.728210 22.177608,609.947693 21.317722,609.033630 
M1033.444946,287.091614 
	C1018.961060,269.575989 1005.480286,251.090363 989.727966,234.801361 
	C971.862549,216.327087 952.502075,199.179092 932.815430,182.614639 
	C906.293396,160.298874 877.029968,141.786484 846.068970,126.244736 
	C827.969788,117.159325 809.446045,108.691490 790.496948,101.590477 
	C770.956238,94.267792 750.879822,88.102890 730.645020,82.983742 
	C711.759827,78.206032 692.437012,74.960342 673.160522,71.989723 
	C657.645325,69.598747 641.939331,67.736801 626.267883,67.248123 
	C606.671448,66.637070 587.004333,67.247070 567.404358,68.136467 
	C552.702576,68.803589 537.943054,70.011253 523.417847,72.301338 
	C504.799377,75.236778 486.171875,78.655441 467.937500,83.370926 
	C433.132965,92.371529 399.394653,104.580902 367.072998,120.476433 
	C335.061920,136.219238 304.845856,154.842697 276.563110,176.620010 
	C251.748886,195.726608 228.660828,216.643448 207.506149,239.782883 
	C186.942673,262.275604 168.396591,286.245667 151.769958,311.759491 
	C134.831696,337.751526 120.311378,365.053101 108.381248,393.641876 
	C95.770950,423.860626 85.542503,454.925446 79.056961,487.089691 
	C76.345222,500.538239 74.105217,514.092041 72.034859,527.656616 
	C70.413490,538.279358 69.233765,548.977234 68.150314,559.671387 
	C67.544235,565.653564 67.533905,571.696167 67.253212,577.752930 
	C131.781189,577.752930 195.549423,577.752930 260.084839,577.752930 
	C260.750153,570.348022 261.057281,563.086914 262.109436,555.935486 
	C265.347015,533.930237 270.107269,512.224731 277.534088,491.247345 
	C287.053131,464.360199 299.549835,438.882202 315.326050,415.047638 
	C333.211670,388.026215 354.228424,363.813629 378.772797,342.595917 
	C400.903595,323.464630 424.988464,307.359802 451.177734,294.398132 
	C474.779114,282.717285 499.302582,273.612335 525.085144,267.928894 
	C546.505249,263.207092 568.050964,259.836456 590.049316,259.961060 
	C598.310608,260.007843 606.619934,259.408417 614.823975,260.096924 
	C631.465454,261.493530 648.217773,262.628265 664.623169,265.558044 
	C698.523438,271.612274 730.503723,283.436432 760.873474,299.820282 
	C785.136902,312.909943 807.672119,328.448029 828.070923,346.842224 
	C850.733154,367.277466 870.603516,390.263336 887.091919,416.090790 
	C902.368286,440.019714 915.267822,465.101501 924.455261,491.978180 
	C933.277283,517.785889 939.465454,544.193604 941.046692,571.537659 
	C941.289917,575.743408 942.418091,578.188721 947.782898,578.169250 
	C1008.272888,577.949036 1068.763916,578.032104 1129.254761,578.018860 
	C1131.022461,578.018494 1132.790161,577.855164 1135.160767,577.738037 
	C1134.732422,573.920105 1134.320679,570.679993 1134.012451,567.430054 
	C1132.621338,552.763428 1132.006592,537.975464 1129.700684,523.455322 
	C1126.718628,504.677979 1123.226318,485.898865 1118.472900,467.503204 
	C1109.057617,431.066345 1096.061768,395.864777 1079.083496,362.191467 
	C1065.959106,336.161926 1050.821899,311.373230 1033.444946,287.091614 
M311.195374,663.229736 
	C321.322876,709.386597 341.726288,750.513977 371.902374,787.415405 
	C395.447296,769.989258 421.765991,758.293152 448.807831,749.147644 
	C444.917786,727.777588 440.427856,707.126526 437.564331,686.252441 
	C434.700348,665.374878 433.462524,644.274231 431.497986,623.122070 
	C389.601929,623.122070 347.566559,623.122070 304.819733,623.122070 
	C306.947021,636.481628 309.009613,649.434814 311.195374,663.229736 
M768.829102,642.302063 
	C766.611633,678.232910 761.251099,713.700562 752.421082,748.908447 
	C780.372375,758.336304 806.557556,770.021301 830.111023,787.427612 
	C869.300354,739.303406 891.681946,684.905334 896.520142,623.132812 
	C854.241516,623.132812 812.190369,623.132812 769.913757,623.132812 
	C769.558044,629.406372 769.219299,635.380005 768.829102,642.302063 
M382.500000,578.932861 
	C398.943726,578.932861 415.387451,578.932861 431.459503,578.932861 
	C433.467834,557.634583 434.706879,536.827393 437.573395,516.246887 
	C440.454987,495.558136 444.956512,475.095032 448.697296,454.809082 
	C435.233612,449.244690 421.431061,444.297668 408.329620,437.912079 
	C395.268524,431.546143 382.910431,423.737762 370.173615,416.521820 
	C330.648285,464.890228 309.323456,522.325989 305.606354,578.932861 
	C330.923187,578.932861 356.211578,578.932861 382.500000,578.932861 
M757.668213,476.883026 
	C764.851868,510.443726 768.381836,544.468323 769.904297,578.677368 
	C812.518372,578.677368 854.444824,578.677368 896.545288,578.677368 
	C891.711365,517.365356 869.757996,463.334473 830.736694,415.879181 
	C806.906677,433.562988 780.451538,445.058350 752.542114,454.403778 
	C754.217773,461.869415 755.813110,468.977051 757.668213,476.883026 
M482.765625,684.701477 
	C486.079285,702.137024 489.392944,719.572510 492.594604,736.418701 
	C521.969421,732.975098 550.414246,729.640503 578.847290,726.307312 
	C578.847290,692.153015 578.847290,657.617493 578.847290,623.077087 
	C544.798218,623.077087 511.084442,623.077087 476.218506,623.077087 
	C478.366913,643.579529 480.476501,663.711609 482.765625,684.701477 
M623.067200,636.508118 
	C623.067200,666.648621 623.067200,696.789185 623.067200,726.240540 
	C651.825378,729.620544 680.175110,732.952576 708.781616,736.314758 
	C718.220703,699.522705 723.598267,661.639404 724.898865,623.193604 
	C690.713623,623.193604 657.007751,623.193604 623.067200,623.193604 
	C623.067200,627.547852 623.067200,631.529602 623.067200,636.508118 
M718.404724,512.036255 
	C715.525635,496.728912 712.646606,481.421570 709.935730,467.008636 
	C680.494629,470.559509 652.004395,473.995697 623.305847,477.457001 
	C623.305847,510.666809 623.305847,544.566406 623.305847,578.661804 
	C657.253479,578.661804 690.961365,578.661804 725.812378,578.661804 
	C723.383484,556.478455 720.997009,534.682251 718.404724,512.036255 
M486.019806,497.586304 
	C481.188660,524.407104 478.080841,551.405273 477.101166,578.637451 
	C511.403503,578.637451 545.134338,578.637451 578.926208,578.637451 
	C578.926208,544.436157 578.926208,510.530670 578.926208,477.465149 
	C549.952393,473.979919 521.331909,470.537201 492.388000,467.055573 
	C490.374054,476.575470 488.242493,486.651428 486.019806,497.586304 
M653.670410,346.843262 
	C644.807800,337.658875 635.452515,329.151855 623.355347,324.221985 
	C623.355347,360.435760 623.355347,396.208527 623.355347,433.188843 
	C647.872314,430.625946 671.977356,428.106079 696.765686,425.514832 
	C686.050171,396.589600 673.697449,370.026794 653.670410,346.843262 
M518.700867,426.871216 
	C538.652100,428.956238 558.603333,431.041260 578.877625,433.160034 
	C578.877625,396.057617 578.877625,360.261383 578.877625,323.473022 
	C537.984436,345.933380 521.450073,384.818481 505.325104,424.591858 
	C509.987793,425.395752 513.910645,426.072113 518.700867,426.871216 
M623.065186,784.512817 
	C623.065186,815.592163 623.065186,846.671448 623.065186,879.049988 
	C663.425293,856.541443 679.747314,818.195923 696.426880,778.119446 
	C671.531860,775.525818 647.611145,773.033691 623.065186,770.476440 
	C623.065186,775.599182 623.065186,779.559082 623.065186,784.512817 
M524.136719,819.331604 
	C537.418030,843.434265 552.752319,865.611755 578.879272,878.329224 
	C578.879272,842.317688 578.879272,806.948914 578.879272,770.507690 
	C554.446167,773.046204 530.424255,775.542053 505.044769,778.178894 
	C511.813873,792.778381 517.814514,805.720459 524.136719,819.331604 
M479.264984,373.877899 
	C485.117859,364.008148 490.506927,353.822479 496.954346,344.357758 
	C503.379089,334.926331 510.865479,326.218140 518.051758,316.980377 
	C477.224487,327.738464 430.512390,354.626190 400.894012,383.905273 
	C419.763947,397.022278 440.299377,406.409912 461.703003,413.296417 
	C467.613342,400.041595 473.293091,387.303955 479.264984,373.877899 
M708.741333,349.791138 
	C721.556030,369.686707 731.404968,391.049286 739.706421,413.531433 
	C761.723999,406.259003 782.397766,397.357452 801.190796,384.100952 
	C771.745178,355.250519 706.670654,318.446320 684.768799,317.677826 
	C692.427612,327.934692 700.369141,338.570221 708.741333,349.791138 
M703.163452,860.657654 
	C696.891357,868.682190 690.619263,876.706787 683.957581,885.229797 
	C728.072571,871.819092 766.507935,849.753784 800.323242,818.889465 
	C781.116882,805.954895 760.914246,796.880981 739.365784,789.797729 
	C729.977600,814.750732 718.770325,838.438538 703.163452,860.657654 
M509.941650,882.556458 
	C512.599670,883.379700 515.257690,884.202881 517.915710,885.026123 
	C492.428406,857.267273 475.716217,824.627258 462.651764,789.979309 
	C443.444489,795.264526 410.104645,811.448486 402.087128,819.353516 
	C433.488556,847.694092 468.964935,869.016907 509.941650,882.556458 
z"/>
<path fill="#090706" opacity="1.000000" stroke="none" 
	d="
M21.250769,609.482117 
	C22.177608,609.947693 23.287983,610.728210 23.857635,611.796936 
	C28.274193,620.083252 35.379108,623.797180 44.497284,623.968079 
	C51.952557,624.107849 59.412125,624.018372 67.261719,624.460083 
	C68.719261,637.999817 69.501999,651.140320 70.905258,664.214294 
	C74.627541,698.894226 82.256668,732.761963 93.042198,765.907654 
	C116.711426,838.647217 154.393219,903.342896 205.775024,959.918762 
	C250.800903,1009.496338 303.360657,1049.310669 363.385132,1079.190430 
	C428.434662,1111.571655 497.258698,1129.721802 569.742310,1134.053101 
	C610.985535,1136.517578 651.970947,1134.107788 692.689697,1127.062256 
	C743.489075,1118.272461 791.963440,1102.396973 838.121887,1079.455933 
	C889.079712,1054.129639 934.814880,1021.457153 975.378662,981.561768 
	C1014.247192,943.333618 1046.572632,900.182678 1072.262817,852.095642 
	C1098.714478,802.583557 1117.345581,750.259399 1126.463013,694.863525 
	C1130.318848,671.437195 1131.708618,647.605042 1134.219116,623.957336 
	C1141.047363,623.969910 1147.880371,623.823120 1154.702637,624.031494 
	C1165.689697,624.366943 1174.156128,620.535400 1178.985474,610.175659 
	C1179.171875,609.775696 1179.688599,609.529724 1180.365356,609.124084 
	C1178.917480,632.764893 1178.039551,656.599548 1175.210083,680.200317 
	C1169.280884,729.659790 1155.802002,777.263306 1136.713013,823.223083 
	C1115.274292,874.840271 1086.911987,922.412170 1051.627319,965.784302 
	C998.208801,1031.446289 933.655090,1083.275513 857.816711,1120.916992 
	C808.240295,1145.523682 756.158264,1162.551392 701.601929,1172.084717 
	C657.923706,1179.717285 613.972473,1182.412476 569.723022,1180.032959 
	C504.378784,1176.519409 441.367889,1162.441650 380.839539,1137.533203 
	C320.151001,1112.558594 265.241821,1078.252808 216.211227,1034.627075 
	C152.464355,977.907410 103.409134,910.446106 69.175713,832.289856 
	C50.087341,788.710388 36.773460,743.380493 28.979393,696.429016 
	C24.224386,667.784790 21.768103,638.944885 21.250769,609.482117 
z"/>
<path fill="#E6E7E8" opacity="1.000000" stroke="none" 
	d="
M1133.736328,623.942383 
	C1131.708618,647.605042 1130.318848,671.437195 1126.463013,694.863525 
	C1117.345581,750.259399 1098.714478,802.583557 1072.262817,852.095642 
	C1046.572632,900.182678 1014.247192,943.333618 975.378662,981.561768 
	C934.814880,1021.457153 889.079712,1054.129639 838.121887,1079.455933 
	C791.963440,1102.396973 743.489075,1118.272461 692.689697,1127.062256 
	C651.970947,1134.107788 610.985535,1136.517578 569.742310,1134.053101 
	C497.258698,1129.721802 428.434662,1111.571655 363.385132,1079.190430 
	C303.360657,1049.310669 250.800903,1009.496338 205.775024,959.918762 
	C154.393219,903.342896 116.711426,838.647217 93.042198,765.907654 
	C82.256668,732.761963 74.627541,698.894226 70.905258,664.214294 
	C69.501999,651.140320 68.719261,637.999817 67.715057,624.423218 
	C131.592255,623.956726 195.408051,623.956726 259.323883,623.956726 
	C270.254303,733.341797 319.813477,820.464539 410.082886,883.143555 
	C474.659668,927.982788 546.920532,947.107605 625.539673,942.026794 
	C777.638550,932.197205 929.500977,805.856201 942.444458,623.927368 
	C1006.022339,623.927368 1069.637939,623.927368 1133.736328,623.942383 
M825.809326,987.548889 
	C818.389587,979.248169 810.969849,970.947449 803.312744,962.381165 
	C799.872742,964.228943 796.574402,966.000610 793.188965,967.819092 
	C796.435486,979.492065 799.566895,990.751038 802.698303,1002.009949 
	C802.314697,1002.226746 801.931091,1002.443542 801.547485,1002.660400 
	C793.902893,993.791016 786.258240,984.921631 778.414062,975.820801 
	C774.469727,978.013855 770.681763,980.120056 766.217957,982.601990 
	C778.764709,994.598450 790.753601,1006.061523 802.961121,1017.733643 
	C805.186401,1016.536133 807.875366,1014.859375 810.749084,1013.606445 
	C813.706238,1012.317139 814.557861,1010.729309 813.523865,1007.465820 
	C811.419800,1000.825500 809.798767,994.031982 807.982422,987.300537 
	C807.467712,985.392883 806.966064,983.481689 806.458435,981.572083 
	C806.827637,981.402588 807.196838,981.233093 807.566101,981.063538 
	C814.498413,988.723145 821.430725,996.382751 828.271729,1003.941467 
	C829.927917,1003.088684 831.119446,1002.498413 832.289734,1001.868774 
	C840.548828,997.425293 840.502869,997.432678 838.416626,988.062195 
	C835.479492,974.869568 832.616455,961.660522 829.629700,948.038940 
	C825.480286,950.299805 821.869080,952.267395 818.181091,954.276733 
	C821.337952,965.250916 824.403442,975.907654 826.886841,987.230103 
	C826.713623,987.468506 826.540344,987.706970 825.809326,987.548889 
M162.899002,707.386108 
	C155.042221,715.752319 153.346329,726.025024 158.124023,736.310791 
	C162.312210,745.327454 171.099396,750.515320 181.516312,750.121521 
	C191.903625,749.728760 200.820679,743.231628 204.231491,733.570801 
	C207.824066,723.395142 203.931992,711.109558 195.095215,704.731628 
	C185.607468,697.883789 173.713562,698.691162 162.899002,707.386108 
M1027.146606,713.135620 
	C1017.607239,709.650940 1008.734070,710.751831 1001.230164,717.768921 
	C994.167603,724.373352 991.580750,732.789551 993.649658,742.258728 
	C996.165955,753.775513 1006.604797,761.453613 1018.968994,761.327393 
	C1030.578003,761.208862 1039.877563,753.162354 1042.563354,740.912048 
	C1045.069092,729.483032 1039.314331,718.747986 1027.146606,713.135620 
M210.403839,803.903259 
	C216.931168,798.043213 223.458511,792.183167 230.021713,786.290955 
	C227.675156,782.219849 225.571045,778.569458 224.495316,776.703125 
	C212.259735,787.989868 200.056061,799.247131 187.881134,810.477905 
	C190.557297,815.112305 192.857773,819.096069 195.203690,823.158569 
	C205.963928,819.961548 216.267975,816.900024 227.734314,813.493225 
	C218.837769,821.793335 210.945084,829.156921 202.874435,836.686462 
	C204.538025,839.599976 206.423019,842.193909 207.564606,845.081726 
	C208.954330,848.597290 211.089996,848.666931 214.205139,847.829773 
	C221.587845,845.845886 229.037155,844.108582 236.465286,842.295105 
	C243.802124,840.504028 251.146057,838.742065 258.811066,836.888916 
	C257.182587,833.980530 255.662186,831.756042 254.640961,829.322021 
	C253.239151,825.980957 251.382767,825.593262 248.047485,826.808777 
	C240.715775,829.480591 233.204758,831.662476 225.756226,834.010437 
	C223.241394,834.803101 220.694214,835.493042 218.161804,836.229858 
	C218.022873,835.918518 217.883957,835.607117 217.745026,835.295776 
	C226.493378,827.170471 235.241730,819.045105 244.029999,810.882751 
	C242.039719,807.418823 240.239243,804.285217 238.302399,800.914307 
	C226.615845,804.416077 215.096252,807.867798 203.576660,811.319519 
	C203.459900,810.997681 203.343140,810.675781 203.226379,810.353943 
	C205.442032,808.360413 207.657684,806.366943 210.403839,803.903259 
M355.953735,939.435242 
	C347.777130,952.052368 339.600494,964.669434 331.301727,977.475037 
	C335.087433,979.929626 338.353668,982.047424 341.772430,984.264038 
	C345.156006,979.136658 348.247162,974.452454 351.234406,969.925659 
	C356.609192,971.389221 358.171326,974.624146 357.359406,979.727539 
	C356.763458,983.473206 356.984802,987.357056 356.958160,991.180115 
	C356.950562,992.271179 356.966248,993.885193 357.625488,994.370178 
	C360.981293,996.839294 364.551880,999.016418 369.009094,1001.923035 
	C369.009094,993.237305 369.009094,986.018799 369.009094,980.199524 
	C373.622620,978.445801 377.973877,977.801697 380.995605,975.449524 
	C389.317841,968.971558 388.911652,958.571106 380.042908,951.665955 
	C373.643402,946.683228 366.596283,942.520325 359.717438,938.182983 
	C358.997009,937.728760 357.459503,938.570374 355.953735,939.435242 
M445.405579,1037.010010 
	C450.147217,1038.512695 454.823334,1040.295654 459.652374,1041.424438 
	C463.146179,1042.241211 466.936798,1042.876099 470.431671,1042.397949 
	C481.330231,1040.906738 489.023132,1030.667847 489.858307,1017.352966 
	C490.412415,1008.519043 487.093414,1001.375671 479.078217,997.699036 
	C471.021698,994.003540 462.401123,991.537781 453.725830,988.424866 
	C448.653961,1004.250732 443.815552,1019.348083 438.880646,1034.746582 
	C440.971375,1035.508667 442.802124,1036.175903 445.405579,1037.010010 
M1003.423645,812.350464 
	C999.697266,804.643799 993.108459,800.397705 985.358337,797.739502 
	C976.245483,794.613953 967.880676,796.758301 962.302063,804.524414 
	C957.326294,811.451233 953.302734,819.062073 948.726379,826.589111 
	C963.031799,834.848755 976.776978,842.784973 991.052185,851.027222 
	C995.324280,843.222229 1000.194763,835.973022 1003.282959,828.030884 
	C1004.991028,823.638000 1003.714172,818.084412 1003.423645,812.350464 
M945.578613,910.161316 
	C945.254089,909.417419 945.057251,908.122009 944.585754,908.012817 
	C938.023743,906.493530 931.424133,905.136658 924.825378,903.738342 
	C927.062927,894.672180 924.991882,888.886047 918.316040,884.846436 
	C912.584473,881.378235 905.773560,882.365479 899.640625,888.023865 
	C893.432251,893.751892 887.504456,899.783936 882.901062,904.271790 
	C894.414490,916.554932 905.369995,928.242920 916.190125,939.786438 
	C919.239685,936.922974 922.023743,934.308777 925.578735,930.970642 
	C921.020752,926.940002 916.699768,923.118958 912.584656,919.479919 
	C915.378845,914.236450 918.915344,912.979919 923.656616,915.018921 
	C924.711914,915.472778 925.980896,915.457275 927.000183,915.962830 
	C934.689697,919.775879 940.526428,917.430908 945.578613,910.161316 
M674.933655,1044.685059 
	C675.535339,1048.868896 676.137085,1053.052856 676.777771,1057.507202 
	C681.349304,1056.833740 685.208740,1056.265137 689.371033,1055.651855 
	C687.016724,1039.424683 684.739563,1023.729309 682.415588,1007.711365 
	C677.950623,1008.357361 674.065491,1008.919495 669.858765,1009.528076 
	C670.711853,1015.922302 671.516724,1021.954895 672.379639,1028.422729 
	C666.124207,1029.313965 660.340820,1030.137939 654.456238,1030.976318 
	C653.448547,1024.382812 652.528198,1018.360596 651.565979,1012.064514 
	C647.149719,1012.782898 643.146729,1013.434021 639.006775,1014.107422 
	C641.385193,1030.393677 643.678040,1046.093384 646.007202,1062.042358 
	C650.491516,1061.343506 654.362793,1060.740112 658.516602,1060.092773 
	C657.624512,1053.502319 656.789917,1047.336792 655.917358,1040.890503 
	C662.062561,1040.002441 667.779480,1039.176270 673.667969,1038.325439 
	C674.067322,1040.241211 674.437378,1042.016235 674.933655,1044.685059 
M891.311707,942.344788 
	C888.196411,937.896606 885.612793,932.916687 881.830994,929.134949 
	C877.108093,924.412231 870.884583,922.152344 863.991577,923.615723 
	C844.473938,927.759399 837.198547,946.469360 848.769531,962.566040 
	C856.343079,973.101562 867.731567,976.649170 877.905457,971.641968 
	C890.075806,965.652222 895.175476,955.048523 891.311707,942.344788 
M729.626282,1025.005859 
	C731.796509,1024.349976 733.966797,1023.694153 736.495056,1022.930115 
	C735.465210,1019.678345 734.591064,1016.918396 733.722961,1014.177185 
	C727.197998,1016.009094 721.168030,1017.702087 714.791931,1019.492188 
	C713.825867,1016.228577 712.990906,1013.407593 712.099487,1010.396057 
	C720.127563,1008.031921 728.008057,1005.711304 736.141968,1003.316040 
	C735.116821,999.912354 734.238647,996.996704 733.293823,993.859680 
	C720.905518,997.457153 709.031555,1000.905273 697.021423,1004.392883 
	C701.599365,1020.219971 706.015625,1035.488159 710.504089,1051.005859 
	C723.084473,1047.358398 735.268555,1043.825928 747.759766,1040.204468 
	C746.680054,1036.665161 745.791138,1033.751099 744.880188,1030.764893 
	C736.342285,1033.209229 728.389038,1035.486084 720.050537,1037.873291 
	C719.182434,1034.753662 718.354492,1031.778320 717.476196,1028.621948 
	C721.556213,1027.392578 725.197266,1026.295410 729.626282,1025.005859 
M519.529541,1007.085938 
	C515.959412,1006.479309 512.389343,1005.872742 508.467346,1005.206360 
	C505.613831,1021.112427 502.808472,1036.750122 499.909851,1052.907593 
	C512.684082,1055.202515 525.174194,1057.446411 538.034668,1059.756836 
	C538.652100,1056.381104 539.202454,1053.372314 539.807251,1050.065552 
	C531.173523,1048.460938 522.928467,1046.928467 514.334900,1045.331299 
	C514.974792,1041.830078 515.516357,1038.866577 516.055420,1035.917236 
	C522.936035,1037.097900 529.108032,1038.156982 535.617615,1039.274048 
	C536.146729,1035.929077 536.595276,1033.093628 537.052979,1030.200317 
	C530.312256,1028.941040 524.143311,1027.788696 517.692993,1026.583862 
	C518.255005,1023.361694 518.764526,1020.440735 519.317261,1017.271667 
	C527.583862,1018.673950 535.681274,1020.047546 543.981079,1021.455444 
	C544.582275,1017.981628 545.083130,1015.087280 545.642944,1011.852478 
	C536.991699,1010.254272 528.687683,1008.720215 519.529541,1007.085938 
M248.239578,857.750671 
	C241.364700,863.254089 234.489838,868.757507 227.405136,874.428833 
	C235.586395,884.642151 243.539917,894.571106 251.644012,904.688049 
	C254.428619,902.445190 256.742737,900.581238 259.306641,898.516113 
	C253.909409,891.717773 248.662262,885.108398 243.199432,878.227417 
	C245.734680,876.191101 248.125671,874.270630 250.721863,872.185303 
	C254.989594,877.481079 259.033508,882.499084 263.212555,887.684814 
	C265.841309,885.556519 268.095642,883.731384 270.411011,881.856812 
	C266.094849,876.418030 262.172424,871.475403 258.043884,866.273071 
	C260.561768,864.275818 262.968903,862.366455 265.546906,860.321533 
	C270.959442,867.057190 276.047516,873.389099 281.245667,879.857910 
	C283.990295,877.592773 286.378937,875.621338 288.868652,873.566528 
	C280.958588,863.674500 273.269104,854.058228 265.345978,844.149780 
	C259.712463,848.619446 254.249146,852.953979 248.239578,857.750671 
M406.563141,980.059814 
	C397.465240,989.141846 388.367340,998.223877 378.955597,1007.619263 
	C383.219482,1009.665710 386.782898,1011.375977 390.776398,1013.292664 
	C393.364868,1010.434143 395.903229,1007.630920 398.392578,1004.881836 
	C401.904236,1006.562622 404.943756,1008.361084 408.213470,1009.497009 
	C412.474030,1010.977173 413.759888,1013.250732 412.446899,1017.713196 
	C411.889099,1019.609131 412.391235,1022.924805 413.716797,1024.030151 
	C416.265991,1026.155884 419.745148,1027.166382 423.380981,1028.897705 
	C425.260620,1012.200012 427.110687,996.084717 428.798889,979.952393 
	C428.897491,979.010193 427.935059,977.539246 427.046722,976.975159 
	C416.397705,970.213501 416.376953,970.246155 407.417328,979.205933 
	C407.299744,979.323547 407.181824,979.440735 406.563141,980.059814 
M611.930237,1035.516357 
	C611.930237,1032.083618 611.930237,1028.650757 611.930237,1024.785278 
	C617.336304,1024.785278 622.248901,1024.785278 627.278625,1024.785278 
	C627.278625,1021.273132 627.278625,1018.220947 627.278625,1015.416687 
	C612.372559,1015.416687 597.827209,1015.416687 583.355835,1015.416687 
	C583.355835,1018.828003 583.355835,1021.761536 583.355835,1025.118652 
	C588.667114,1025.118652 593.732361,1025.118652 599.291748,1025.118652 
	C599.291748,1038.112305 599.291748,1050.675781 599.291748,1063.335571 
	C603.834351,1063.335571 607.850830,1063.335571 611.935120,1063.335571 
	C611.935120,1054.118164 611.935120,1045.315796 611.930237,1035.516357 
M316.419708,942.921326 
	C320.935547,937.679077 325.451385,932.436890 330.026611,927.125732 
	C334.303802,930.756531 338.064850,933.949219 342.024597,937.310486 
	C344.321594,934.609497 346.314606,932.265930 348.423309,929.786316 
	C336.943451,919.951477 325.887848,910.480103 314.736542,900.926819 
	C312.423859,903.663330 310.503693,905.935425 308.388733,908.437988 
	C312.423737,911.951355 316.255829,915.288086 320.266632,918.780396 
	C311.837555,928.633057 303.653717,938.199036 295.205566,948.073975 
	C298.596405,950.962402 301.668854,953.579590 304.885284,956.319458 
	C308.807159,951.762817 312.380768,947.610962 316.419708,942.921326 
M975.075500,861.585022 
	C973.266541,859.541565 972.206726,860.569519 970.907288,862.332764 
	C966.789856,867.919861 962.508789,873.386230 958.129089,879.110840 
	C947.759644,871.249817 937.706787,863.628845 927.373840,855.795532 
	C924.784790,859.223816 922.325500,862.480347 919.690613,865.969360 
	C932.734863,875.882629 945.414978,885.519165 958.314026,895.322083 
	C965.856445,885.394409 973.169678,875.768494 980.697693,865.859802 
	C978.774780,864.389648 977.214417,863.196655 975.075500,861.585022 
z"/>
<path fill="#1E6333" opacity="1.000000" stroke="none" 
	d="
M1033.642822,287.393372 
	C1050.821899,311.373230 1065.959106,336.161926 1079.083496,362.191467 
	C1096.061768,395.864777 1109.057617,431.066345 1118.472900,467.503204 
	C1123.226318,485.898865 1126.718628,504.677979 1129.700684,523.455322 
	C1132.006592,537.975464 1132.621338,552.763428 1134.012451,567.430054 
	C1134.320679,570.679993 1134.732422,573.920105 1135.160767,577.738037 
	C1132.790161,577.855164 1131.022461,578.018494 1129.254761,578.018860 
	C1068.763916,578.032104 1008.272888,577.949036 947.782898,578.169250 
	C942.418091,578.188721 941.289917,575.743408 941.046692,571.537659 
	C939.465454,544.193604 933.277283,517.785889 924.455261,491.978180 
	C915.267822,465.101501 902.368286,440.019714 887.091919,416.090790 
	C870.603516,390.263336 850.733154,367.277466 828.070923,346.842224 
	C807.672119,328.448029 785.136902,312.909943 760.873474,299.820282 
	C730.503723,283.436432 698.523438,271.612274 664.623169,265.558044 
	C648.217773,262.628265 631.465454,261.493530 614.823975,260.096924 
	C606.619934,259.408417 598.310608,260.007843 590.049316,259.961060 
	C568.050964,259.836456 546.505249,263.207092 525.085144,267.928894 
	C499.302582,273.612335 474.779114,282.717285 451.177734,294.398132 
	C424.988464,307.359802 400.903595,323.464630 378.772797,342.595917 
	C354.228424,363.813629 333.211670,388.026215 315.326050,415.047638 
	C299.549835,438.882202 287.053131,464.360199 277.534088,491.247345 
	C270.107269,512.224731 265.347015,533.930237 262.109436,555.935486 
	C261.057281,563.086914 260.750153,570.348022 260.084839,577.752930 
	C195.549423,577.752930 131.781189,577.752930 67.253212,577.752930 
	C67.533905,571.696167 67.544235,565.653564 68.150314,559.671387 
	C69.233765,548.977234 70.413490,538.279358 72.034859,527.656616 
	C74.105217,514.092041 76.345222,500.538239 79.056961,487.089691 
	C85.542503,454.925446 95.770950,423.860626 108.381248,393.641876 
	C120.311378,365.053101 134.831696,337.751526 151.769958,311.759491 
	C168.396591,286.245667 186.942673,262.275604 207.506149,239.782883 
	C228.660828,216.643448 251.748886,195.726608 276.563110,176.620010 
	C304.845856,154.842697 335.061920,136.219238 367.072998,120.476433 
	C399.394653,104.580902 433.132965,92.371529 467.937500,83.370926 
	C486.171875,78.655441 504.799377,75.236778 523.417847,72.301338 
	C537.943054,70.011253 552.702576,68.803589 567.404358,68.136467 
	C587.004333,67.247070 606.671448,66.637070 626.267883,67.248123 
	C641.939331,67.736801 657.645325,69.598747 673.160522,71.989723 
	C692.437012,74.960342 711.759827,78.206032 730.645020,82.983742 
	C750.879822,88.102890 770.956238,94.267792 790.496948,101.590477 
	C809.446045,108.691490 827.969788,117.159325 846.068970,126.244736 
	C877.029968,141.786484 906.293396,160.298874 932.815430,182.614639 
	C952.502075,199.179092 971.862549,216.327087 989.727966,234.801361 
	C1005.480286,251.090363 1018.961060,269.575989 1033.642822,287.393372 
M496.927826,188.100113 
	C483.689911,175.192963 470.486053,162.250336 457.149414,149.446045 
	C456.081787,148.421036 453.921021,147.627975 452.570099,147.959045 
	C446.145874,149.533417 439.826233,151.534470 433.118530,153.485718 
	C440.526276,178.774704 447.840088,203.742905 455.192627,228.843384 
	C461.234772,227.032791 466.734131,225.384857 472.458099,223.669601 
	C467.448212,206.759552 462.601776,190.401230 457.446198,172.999420 
	C459.135529,174.465515 460.018250,175.159134 460.818878,175.937241 
	C473.481842,188.243729 486.109711,200.586594 498.833954,212.829361 
	C499.895386,213.850616 501.801086,215.040787 502.955841,214.746231 
	C509.674316,213.032532 516.285522,210.898178 523.068298,208.865448 
	C515.672424,183.625809 508.399658,158.806107 501.017792,133.614197 
	C495.044159,135.374207 489.559570,136.990128 483.900299,138.657501 
	C484.144440,139.721329 484.255249,140.353180 484.434906,140.964813 
	C489.021210,156.581833 493.614716,172.196716 497.821045,188.152542 
	C497.695618,188.269577 497.570190,188.386627 496.927826,188.100113 
M206.085602,333.235291 
	C226.209442,349.324280 246.333282,365.413269 266.782013,381.761963 
	C271.065216,376.389282 275.062622,371.375122 279.294586,366.066711 
	C271.688416,360.001953 264.345673,354.147217 256.909210,348.217773 
	C258.159576,346.607391 259.277222,345.539398 259.946686,344.240448 
	C262.612793,339.067444 266.629059,338.367584 272.011169,339.482025 
	C279.493347,341.031403 287.129669,341.857269 294.719208,342.845062 
	C295.875763,342.995605 297.627502,342.766266 298.268646,342.007172 
	C302.601471,336.877167 306.709412,331.557190 311.456146,325.586731 
	C304.476654,324.934174 298.544678,324.413696 292.620514,323.816254 
	C286.507141,323.199677 280.401337,322.508240 275.173584,321.944611 
	C274.841797,316.509583 275.593567,311.135376 274.043182,306.537476 
	C267.845673,288.157990 245.906494,284.564270 232.202301,299.869934 
	C222.890305,310.270142 214.627045,321.609375 206.085602,333.235291 
M876.875000,312.016907 
	C881.001343,316.720032 885.127686,321.423157 889.294434,326.172363 
	C896.686707,319.695679 903.654480,313.590912 910.872070,307.267273 
	C912.498596,309.091370 913.678101,310.719238 915.154175,312.007294 
	C918.414429,314.852203 919.026978,317.734497 917.320740,321.986115 
	C914.356384,329.372711 912.166870,337.076477 909.817566,344.698151 
	C909.383118,346.107422 909.075806,348.283051 909.821777,349.208801 
	C914.057129,354.464386 918.630249,359.447723 923.433044,364.915955 
	C927.021240,352.360413 930.372498,340.633850 933.338501,330.255432 
	C939.460205,330.736145 944.852539,332.301819 949.744995,331.335846 
	C966.368591,328.053650 974.848755,310.338684 965.543579,296.290741 
	C956.806641,283.100677 945.701965,271.478943 935.395386,258.868866 
	C915.340576,276.596924 896.138611,293.569244 876.949707,310.556335 
	C876.722839,310.757172 876.664856,311.148926 876.875000,312.016907 
M858.833313,286.163605 
	C859.985046,286.008301 861.172852,285.983795 862.283142,285.678040 
	C877.922729,281.371429 887.342163,270.260345 893.089478,255.991028 
	C903.348572,230.519882 879.663025,201.317169 852.275757,204.401535 
	C832.244568,206.657471 815.326294,231.054550 814.929626,247.132355 
	C814.407837,268.280426 835.276489,287.345306 858.833313,286.163605 
M392.645538,174.988220 
	C388.290863,175.971069 383.679535,176.343216 379.627594,178.046326 
	C364.907318,184.233597 354.119415,193.997086 353.459442,211.204132 
	C353.006012,223.026169 357.904816,233.233093 364.931213,242.419540 
	C375.628967,256.406006 390.782196,260.541473 407.112732,254.156265 
	C425.811249,246.845184 435.341949,232.656509 433.020752,214.605850 
	C431.579529,203.398178 426.252441,193.818481 418.464142,185.685333 
	C411.704620,178.626480 403.436707,174.858856 392.645538,174.988220 
M1040.032104,459.842896 
	C1039.214844,466.017761 1038.397583,472.192627 1037.523071,478.799835 
	C1041.680054,480.139496 1046.533691,481.703644 1051.482300,483.298401 
	C1051.975220,482.522705 1052.417358,482.015320 1052.655151,481.425598 
	C1059.963013,463.297821 1056.231201,446.647369 1044.655640,431.845154 
	C1041.347656,427.615173 1035.519531,424.402252 1030.225464,422.868500 
	C1017.301147,419.124115 1005.250977,428.233856 1005.061035,441.671936 
	C1004.929871,450.950165 1006.245239,460.244568 1006.794922,469.538757 
	C1007.018860,473.325043 1005.937561,476.697876 1001.742676,477.611115 
	C997.810547,478.467072 995.620483,475.904938 993.970215,472.742371 
	C988.056152,461.408356 988.666809,450.023865 993.796143,438.285767 
	C988.586487,436.721802 983.415039,435.169342 978.356628,433.650818 
	C977.757385,434.458923 977.387024,434.814758 977.186829,435.249023 
	C969.730774,451.426147 974.310547,477.728058 986.908630,490.386383 
	C994.164612,497.676910 1002.684082,499.809143 1012.514893,496.174835 
	C1021.805969,492.739990 1025.183350,485.541199 1025.460815,476.298309 
	C1025.515625,474.473114 1025.501953,472.635773 1025.359131,470.816589 
	C1024.825317,464.010437 1024.079468,457.217346 1023.710388,450.403259 
	C1023.525696,446.993011 1024.100586,443.489166 1028.234253,442.508911 
	C1032.202148,441.567963 1034.728760,444.051605 1036.121216,447.188904 
	C1037.787476,450.942841 1038.731323,455.017334 1040.032104,459.842896 
M581.800171,124.065651 
	C581.533997,125.482796 581.073425,126.894348 581.032410,128.317978 
	C580.692200,140.141144 580.310303,151.965164 580.175476,163.791611 
	C580.031555,176.414169 580.143066,189.039612 580.143066,202.730774 
	C600.387146,202.730774 621.073425,202.730774 641.932861,202.730774 
	C641.932861,198.224564 641.932861,193.299988 641.932861,187.450943 
	C627.963196,187.450943 614.218140,187.450943 600.476868,187.450943 
	C600.476868,181.449371 600.476868,176.384308 600.476868,171.284973 
	C611.443542,171.284973 622.019958,171.284973 632.830933,171.284973 
	C632.830933,166.415848 632.830933,161.836090 632.830933,156.262634 
	C622.053711,156.262634 611.506531,156.262634 601.277588,156.262634 
	C601.277588,150.320999 601.277588,145.378769 601.277588,140.531296 
	C615.014648,140.531296 628.391602,140.531296 641.861328,140.531296 
	C641.861328,135.418335 641.861328,130.496368 641.861328,125.217323 
	C621.983887,124.779655 602.366821,124.347725 581.800171,124.065651 
M816.109375,179.475082 
	C809.851257,171.819870 800.935608,168.335968 792.337097,164.373032 
	C784.556946,160.787262 776.740417,157.280334 768.735657,153.645859 
	C757.750244,177.674957 747.008789,201.170410 736.117310,224.994080 
	C742.581604,227.940384 748.525208,230.649368 754.602417,233.419281 
	C758.403870,225.205627 761.937500,217.570663 765.458923,209.962051 
	C772.624023,212.880661 779.284851,215.891327 786.150757,218.322922 
	C797.246582,222.252533 807.888672,219.830170 813.844910,211.853363 
	C821.395020,201.742004 824.076721,190.474701 816.109375,179.475082 
M711.059814,171.576309 
	C720.028015,162.028870 728.996277,152.481445 737.819641,143.088287 
	C733.169434,142.072632 727.487427,141.075226 721.960632,139.524658 
	C719.076416,138.715500 717.405518,139.354446 715.528809,141.536163 
	C710.476013,147.410370 705.177612,153.073410 699.588318,159.249466 
	C697.160339,151.116211 695.073730,143.786423 692.726501,136.541107 
	C692.236267,135.027985 691.012939,132.967163 689.735107,132.625427 
	C682.884888,130.793381 675.910461,129.425522 668.187866,127.722870 
	C673.190308,141.220840 677.774292,153.996872 682.707336,166.636627 
	C684.075073,170.141235 683.499512,172.178024 680.739868,174.705750 
	C670.454041,184.127151 660.449097,193.855209 649.833008,203.948990 
	C656.020691,205.371323 661.569885,206.427612 666.982117,207.965775 
	C670.778931,209.044800 673.304016,208.339188 675.897766,205.161636 
	C680.751770,199.215469 686.138428,193.704117 691.692139,187.583527 
	C694.505676,196.179535 697.000061,203.929382 699.606567,211.641357 
	C700.058838,212.979538 700.761292,215.021042 701.728333,215.271820 
	C708.994507,217.156250 716.356018,218.673203 724.400269,220.463699 
	C718.352478,204.900452 712.700439,190.355682 706.828552,175.245026 
	C708.023132,174.226761 709.286621,173.149704 711.059814,171.576309 
M170.456512,405.873993 
	C168.953964,405.338654 167.451416,404.803314 165.700119,404.179352 
	C158.023834,424.725067 150.550217,444.728363 142.977966,464.995636 
	C148.011673,466.862762 152.592453,468.561890 157.349884,470.326538 
	C162.427109,456.835052 167.288620,443.916748 172.489304,430.097198 
	C181.293274,447.159668 190.233643,462.966125 197.641739,479.460693 
	C201.570465,488.208313 208.175842,490.838165 216.328751,492.974823 
	C224.163406,471.993347 231.919617,451.222015 239.748306,430.256531 
	C234.690765,428.360870 230.196671,426.676392 225.410019,424.882263 
	C220.185028,438.756134 215.029678,452.445068 209.519958,467.074982 
	C200.588593,449.848572 191.953461,433.738892 183.891037,417.347534 
	C181.066772,411.605621 177.705978,407.325165 170.456512,405.873993 
M336.264587,283.924835 
	C330.841187,287.688904 325.088593,288.218567 319.366364,284.963470 
	C310.816254,280.099701 304.654297,272.886658 301.429443,263.656311 
	C298.001740,253.845276 304.053650,243.402420 314.332886,241.827988 
	C318.175812,241.239380 322.428986,243.328949 326.990448,244.303207 
	C329.494354,239.547867 332.388214,234.051880 335.470245,228.198563 
	C332.355347,226.849213 329.873047,225.442017 327.206726,224.672638 
	C309.677185,219.614395 285.701385,235.855545 281.877045,255.272079 
	C278.343231,273.213562 292.326996,296.153412 311.078430,303.175934 
	C326.469208,308.939850 344.055878,302.650665 355.279816,287.490601 
	C362.618561,277.578186 364.177887,267.117279 358.860321,255.297668 
	C352.902618,257.992065 347.270416,260.539276 341.720612,263.049194 
	C345.195465,273.745514 344.344025,277.067139 336.264587,283.924835 
M943.868835,398.687531 
	C946.031921,402.386017 948.195007,406.084473 950.434448,409.913483 
	C968.653015,399.328094 986.554993,388.926605 1004.643860,378.416565 
	C1009.132568,386.074036 1013.297485,393.179291 1017.573975,400.474762 
	C1022.344177,397.684082 1026.627686,395.178101 1031.123047,392.548126 
	C1019.053894,371.830933 1007.110229,351.329163 995.041992,330.613647 
	C990.329712,333.365814 986.061523,335.858582 981.492493,338.527100 
	C985.830444,346.030640 990.028320,353.291809 994.340027,360.749847 
	C976.024353,371.440887 958.156494,381.870514 940.209900,392.346100 
	C941.506287,394.618103 942.494263,396.349640 943.868835,398.687531 
M238.333069,412.133850 
	C241.350723,413.810425 244.368378,415.487000 247.645950,417.307983 
	C250.990250,411.259705 254.175385,405.499298 257.498047,399.490173 
	C234.529663,386.758606 211.918320,374.224915 188.882843,361.456146 
	C185.521606,367.520264 182.344437,373.252319 179.015839,379.257538 
	C198.804657,390.246521 218.234314,401.036041 238.333069,412.133850 
z"/>
<path fill="#E6E7E8" opacity="1.000000" stroke="none" 
	d="
M311.133789,662.808838 
	C309.009613,649.434814 306.947021,636.481628 304.819733,623.122070 
	C347.566559,623.122070 389.601929,623.122070 431.497986,623.122070 
	C433.462524,644.274231 434.700348,665.374878 437.564331,686.252441 
	C440.427856,707.126526 444.917786,727.777588 448.807831,749.147644 
	C421.765991,758.293152 395.447296,769.989258 371.902374,787.415405 
	C341.726288,750.513977 321.322876,709.386597 311.133789,662.808838 
z"/>
<path fill="#E6E7E8" opacity="1.000000" stroke="none" 
	d="
M768.854858,641.827820 
	C769.219299,635.380005 769.558044,629.406372 769.913757,623.132812 
	C812.190369,623.132812 854.241516,623.132812 896.520142,623.132812 
	C891.681946,684.905334 869.300354,739.303406 830.111023,787.427612 
	C806.557556,770.021301 780.372375,758.336304 752.421082,748.908447 
	C761.251099,713.700562 766.611633,678.232910 768.854858,641.827820 
z"/>
<path fill="#E6E7E8" opacity="1.000000" stroke="none" 
	d="
M382.000000,578.932861 
	C356.211578,578.932861 330.923187,578.932861 305.606354,578.932861 
	C309.323456,522.325989 330.648285,464.890228 370.173615,416.521820 
	C382.910431,423.737762 395.268524,431.546143 408.329620,437.912079 
	C421.431061,444.297668 435.233612,449.244690 448.697296,454.809082 
	C444.956512,475.095032 440.454987,495.558136 437.573395,516.246887 
	C434.706879,536.827393 433.467834,557.634583 431.459503,578.932861 
	C415.387451,578.932861 398.943726,578.932861 382.000000,578.932861 
z"/>
<path fill="#E6E7E8" opacity="1.000000" stroke="none" 
	d="
M757.538330,476.483826 
	C755.813110,468.977051 754.217773,461.869415 752.542114,454.403778 
	C780.451538,445.058350 806.906677,433.562988 830.736694,415.879181 
	C869.757996,463.334473 891.711365,517.365356 896.545288,578.677368 
	C854.444824,578.677368 812.518372,578.677368 769.904297,578.677368 
	C768.381836,544.468323 764.851868,510.443726 757.538330,476.483826 
z"/>
<path fill="#E6E7E8" opacity="1.000000" stroke="none" 
	d="
M482.675873,684.272583 
	C480.476501,663.711609 478.366913,643.579529 476.218506,623.077087 
	C511.084442,623.077087 544.798218,623.077087 578.847290,623.077087 
	C578.847290,657.617493 578.847290,692.153015 578.847290,726.307312 
	C550.414246,729.640503 521.969421,732.975098 492.594604,736.418701 
	C489.392944,719.572510 486.079285,702.137024 482.675873,684.272583 
z"/>
<path fill="#E6E7E8" opacity="1.000000" stroke="none" 
	d="
M623.067200,636.009766 
	C623.067200,631.529602 623.067200,627.547852 623.067200,623.193604 
	C657.007751,623.193604 690.713623,623.193604 724.898865,623.193604 
	C723.598267,661.639404 718.220703,699.522705 708.781616,736.314758 
	C680.175110,732.952576 651.825378,729.620544 623.067200,726.240540 
	C623.067200,696.789185 623.067200,666.648621 623.067200,636.009766 
z"/>
<path fill="#E6E7E8" opacity="1.000000" stroke="none" 
	d="
M718.507568,512.461182 
	C720.997009,534.682251 723.383484,556.478455 725.812378,578.661804 
	C690.961365,578.661804 657.253479,578.661804 623.305847,578.661804 
	C623.305847,544.566406 623.305847,510.666809 623.305847,477.457001 
	C652.004395,473.995697 680.494629,470.559509 709.935730,467.008636 
	C712.646606,481.421570 715.525635,496.728912 718.507568,512.461182 
z"/>
<path fill="#E6E7E8" opacity="1.000000" stroke="none" 
	d="
M486.065369,497.156860 
	C488.242493,486.651428 490.374054,476.575470 492.388000,467.055573 
	C521.331909,470.537201 549.952393,473.979919 578.926208,477.465149 
	C578.926208,510.530670 578.926208,544.436157 578.926208,578.637451 
	C545.134338,578.637451 511.403503,578.637451 477.101166,578.637451 
	C478.080841,551.405273 481.188660,524.407104 486.065369,497.156860 
z"/>
<path fill="#E6E7E8" opacity="1.000000" stroke="none" 
	d="
M653.906128,347.107269 
	C673.697449,370.026794 686.050171,396.589600 696.765686,425.514832 
	C671.977356,428.106079 647.872314,430.625946 623.355347,433.188843 
	C623.355347,396.208527 623.355347,360.435760 623.355347,324.221985 
	C635.452515,329.151855 644.807800,337.658875 653.906128,347.107269 
z"/>
<path fill="#E6E7E8" opacity="1.000000" stroke="none" 
	d="
M518.267212,426.809845 
	C513.910645,426.072113 509.987793,425.395752 505.325104,424.591858 
	C521.450073,384.818481 537.984436,345.933380 578.877625,323.473022 
	C578.877625,360.261383 578.877625,396.057617 578.877625,433.160034 
	C558.603333,431.041260 538.652100,428.956238 518.267212,426.809845 
z"/>
<path fill="#E5E7E8" opacity="1.000000" stroke="none" 
	d="
M623.065186,784.015930 
	C623.065186,779.559082 623.065186,775.599182 623.065186,770.476440 
	C647.611145,773.033691 671.531860,775.525818 696.426880,778.119446 
	C679.747314,818.195923 663.425293,856.541443 623.065186,879.049988 
	C623.065186,846.671448 623.065186,815.592163 623.065186,784.015930 
z"/>
<path fill="#E6E7E8" opacity="1.000000" stroke="none" 
	d="
M523.975952,818.997070 
	C517.814514,805.720459 511.813873,792.778381 505.044769,778.178894 
	C530.424255,775.542053 554.446167,773.046204 578.879272,770.507690 
	C578.879272,806.948914 578.879272,842.317688 578.879272,878.329224 
	C552.752319,865.611755 537.418030,843.434265 523.975952,818.997070 
z"/>
<path fill="#E5E6E7" opacity="1.000000" stroke="none" 
	d="
M479.118896,374.222107 
	C473.293091,387.303955 467.613342,400.041595 461.703003,413.296417 
	C440.299377,406.409912 419.763947,397.022278 400.894012,383.905273 
	C430.512390,354.626190 477.224487,327.738464 518.051758,316.980377 
	C510.865479,326.218140 503.379089,334.926331 496.954346,344.357758 
	C490.506927,353.822479 485.117859,364.008148 479.118896,374.222107 
z"/>
<path fill="#E5E6E7" opacity="1.000000" stroke="none" 
	d="
M708.526001,349.498444 
	C700.369141,338.570221 692.427612,327.934692 684.768799,317.677826 
	C706.670654,318.446320 771.745178,355.250519 801.190796,384.100952 
	C782.397766,397.357452 761.723999,406.259003 739.706421,413.531433 
	C731.404968,391.049286 721.556030,369.686707 708.526001,349.498444 
z"/>
<path fill="#E5E6E7" opacity="1.000000" stroke="none" 
	d="
M703.383301,860.372559 
	C718.770325,838.438538 729.977600,814.750732 739.365784,789.797729 
	C760.914246,796.880981 781.116882,805.954895 800.323242,818.889465 
	C766.507935,849.753784 728.072571,871.819092 683.957581,885.229797 
	C690.619263,876.706787 696.891357,868.682190 703.383301,860.372559 
z"/>
<path fill="#E5E6E7" opacity="1.000000" stroke="none" 
	d="
M509.575256,882.402710 
	C468.964935,869.016907 433.488556,847.694092 402.087128,819.353516 
	C410.104645,811.448486 443.444489,795.264526 462.651764,789.979309 
	C475.716217,824.627258 492.428406,857.267273 517.915710,885.026123 
	C515.257690,884.202881 512.599670,883.379700 509.575256,882.402710 
z"/>
<path fill="#0A0807" opacity="1.000000" stroke="none" 
	d="
M163.154846,707.134155 
	C173.713562,698.691162 185.607468,697.883789 195.095215,704.731628 
	C203.931992,711.109558 207.824066,723.395142 204.231491,733.570801 
	C200.820679,743.231628 191.903625,749.728760 181.516312,750.121521 
	C171.099396,750.515320 162.312210,745.327454 158.124023,736.310791 
	C153.346329,726.025024 155.042221,715.752319 163.154846,707.134155 
z"/>
<path fill="#0A0807" opacity="1.000000" stroke="none" 
	d="
M1027.497803,713.299316 
	C1039.314331,718.747986 1045.069092,729.483032 1042.563354,740.912048 
	C1039.877563,753.162354 1030.578003,761.208862 1018.968994,761.327393 
	C1006.604797,761.453613 996.165955,753.775513 993.649658,742.258728 
	C991.580750,732.789551 994.167603,724.373352 1001.230164,717.768921 
	C1008.734070,710.751831 1017.607239,709.650940 1027.497803,713.299316 
z"/>
<path fill="#0E0C0B" opacity="1.000000" stroke="none" 
	d="
M827.468994,986.564392 
	C824.403442,975.907654 821.337952,965.250916 818.181091,954.276733 
	C821.869080,952.267395 825.480286,950.299805 829.629700,948.038940 
	C832.616455,961.660522 835.479492,974.869568 838.416626,988.062195 
	C840.502869,997.432678 840.548828,997.425293 832.289734,1001.868774 
	C831.119446,1002.498413 829.927917,1003.088684 828.271729,1003.941467 
	C821.430725,996.382751 814.498413,988.723145 807.566101,981.063538 
	C807.196838,981.233093 806.827637,981.402588 806.458435,981.572083 
	C806.966064,983.481689 807.467712,985.392883 807.982422,987.300537 
	C809.798767,994.031982 811.419800,1000.825500 813.523865,1007.465820 
	C814.557861,1010.729309 813.706238,1012.317139 810.749084,1013.606445 
	C807.875366,1014.859375 805.186401,1016.536133 802.961121,1017.733643 
	C790.753601,1006.061523 778.764709,994.598450 766.217957,982.601990 
	C770.681763,980.120056 774.469727,978.013855 778.414062,975.820801 
	C786.258240,984.921631 793.902893,993.791016 801.547485,1002.660400 
	C801.931091,1002.443542 802.314697,1002.226746 802.698303,1002.009949 
	C799.566895,990.751038 796.435486,979.492065 793.188965,967.819092 
	C796.574402,966.000610 799.872742,964.228943 803.312744,962.381165 
	C810.969849,970.947449 818.389587,979.248169 826.252563,988.043579 
	C827.080872,988.724426 827.465820,988.910645 827.850830,989.096863 
	C827.723572,988.252686 827.596313,987.408569 827.468994,986.564392 
M806.988464,980.538818 
	C806.695129,980.508606 806.401855,980.478394 806.108521,980.448181 
	C806.239441,980.635437 806.370361,980.822693 806.988464,980.538818 
z"/>
<path fill="#0F0D0C" opacity="1.000000" stroke="none" 
	d="
M210.138580,804.138306 
	C207.657684,806.366943 205.442032,808.360413 203.226379,810.353943 
	C203.343140,810.675781 203.459900,810.997681 203.576660,811.319519 
	C215.096252,807.867798 226.615845,804.416077 238.302399,800.914307 
	C240.239243,804.285217 242.039719,807.418823 244.029999,810.882751 
	C235.241730,819.045105 226.493378,827.170471 217.745026,835.295776 
	C217.883957,835.607117 218.022873,835.918518 218.161804,836.229858 
	C220.694214,835.493042 223.241394,834.803101 225.756226,834.010437 
	C233.204758,831.662476 240.715775,829.480591 248.047485,826.808777 
	C251.382767,825.593262 253.239151,825.980957 254.640961,829.322021 
	C255.662186,831.756042 257.182587,833.980530 258.811066,836.888916 
	C251.146057,838.742065 243.802124,840.504028 236.465286,842.295105 
	C229.037155,844.108582 221.587845,845.845886 214.205139,847.829773 
	C211.089996,848.666931 208.954330,848.597290 207.564606,845.081726 
	C206.423019,842.193909 204.538025,839.599976 202.874435,836.686462 
	C210.945084,829.156921 218.837769,821.793335 227.734314,813.493225 
	C216.267975,816.900024 205.963928,819.961548 195.203690,823.158569 
	C192.857773,819.096069 190.557297,815.112305 187.881134,810.477905 
	C200.056061,799.247131 212.259735,787.989868 224.495316,776.703125 
	C225.571045,778.569458 227.675156,782.219849 230.021713,786.290955 
	C223.458511,792.183167 216.931168,798.043213 210.138580,804.138306 
z"/>
<path fill="#0F0D0C" opacity="1.000000" stroke="none" 
	d="
M356.127380,939.123047 
	C357.459503,938.570374 358.997009,937.728760 359.717438,938.182983 
	C366.596283,942.520325 373.643402,946.683228 380.042908,951.665955 
	C388.911652,958.571106 389.317841,968.971558 380.995605,975.449524 
	C377.973877,977.801697 373.622620,978.445801 369.009094,980.199524 
	C369.009094,986.018799 369.009094,993.237305 369.009094,1001.923035 
	C364.551880,999.016418 360.981293,996.839294 357.625488,994.370178 
	C356.966248,993.885193 356.950562,992.271179 356.958160,991.180115 
	C356.984802,987.357056 356.763458,983.473206 357.359406,979.727539 
	C358.171326,974.624146 356.609192,971.389221 351.234406,969.925659 
	C348.247162,974.452454 345.156006,979.136658 341.772430,984.264038 
	C338.353668,982.047424 335.087433,979.929626 331.301727,977.475037 
	C339.600494,964.669434 347.777130,952.052368 356.127380,939.123047 
M357.437286,960.144836 
	C357.661133,961.080627 357.572418,962.442139 358.164276,962.876709 
	C360.426117,964.537476 362.850128,966.004578 365.320679,967.346985 
	C368.383911,969.011353 371.124695,968.508362 373.082916,965.482788 
	C375.021637,962.487305 374.500854,959.735718 371.683899,957.629761 
	C368.945557,955.582581 366.036407,953.763855 362.967407,951.685852 
	C361.092987,954.572083 359.479584,957.056396 357.437286,960.144836 
z"/>
<path fill="#0E0B0A" opacity="1.000000" stroke="none" 
	d="
M445.019226,1036.926636 
	C442.802124,1036.175903 440.971375,1035.508667 438.880646,1034.746582 
	C443.815552,1019.348083 448.653961,1004.250732 453.725830,988.424866 
	C462.401123,991.537781 471.021698,994.003540 479.078217,997.699036 
	C487.093414,1001.375671 490.412415,1008.519043 489.858307,1017.352966 
	C489.023132,1030.667847 481.330231,1040.906738 470.431671,1042.397949 
	C466.936798,1042.876099 463.146179,1042.241211 459.652374,1041.424438 
	C454.823334,1040.295654 450.147217,1038.512695 445.019226,1036.926636 
M475.242432,1022.473328 
	C479.314240,1009.493225 476.057678,1004.201843 462.651062,1002.372620 
	C459.784943,1011.379211 456.906982,1020.423096 454.036163,1029.444458 
	C467.075348,1034.161499 470.447235,1033.106567 475.242432,1022.473328 
z"/>
<path fill="#0D0B0A" opacity="1.000000" stroke="none" 
	d="
M1003.603271,812.702271 
	C1003.714172,818.084412 1004.991028,823.638000 1003.282959,828.030884 
	C1000.194763,835.973022 995.324280,843.222229 991.052185,851.027222 
	C976.776978,842.784973 963.031799,834.848755 948.726379,826.589111 
	C953.302734,819.062073 957.326294,811.451233 962.302063,804.524414 
	C967.880676,796.758301 976.245483,794.613953 985.358337,797.739502 
	C993.108459,800.397705 999.697266,804.643799 1003.603271,812.702271 
M977.271790,808.927856 
	C969.025208,808.279541 967.067078,814.914185 963.689819,820.486084 
	C972.153259,825.364441 980.402222,830.119202 988.610046,834.850220 
	C997.155090,822.779480 995.346558,816.207947 982.281860,810.541870 
	C980.918274,809.950439 979.486877,809.515381 977.271790,808.927856 
z"/>
<path fill="#0E0C0B" opacity="1.000000" stroke="none" 
	d="
M945.337402,910.415649 
	C940.526428,917.430908 934.689697,919.775879 927.000183,915.962830 
	C925.980896,915.457275 924.711914,915.472778 923.656616,915.018921 
	C918.915344,912.979919 915.378845,914.236450 912.584656,919.479919 
	C916.699768,923.118958 921.020752,926.940002 925.578735,930.970642 
	C922.023743,934.308777 919.239685,936.922974 916.190125,939.786438 
	C905.369995,928.242920 894.414490,916.554932 882.901062,904.271790 
	C887.504456,899.783936 893.432251,893.751892 899.640625,888.023865 
	C905.773560,882.365479 912.584473,881.378235 918.316040,884.846436 
	C924.991882,888.886047 927.062927,894.672180 924.825378,903.738342 
	C931.424133,905.136658 938.023743,906.493530 944.585754,908.012817 
	C945.057251,908.122009 945.254089,909.417419 945.337402,910.415649 
M906.425354,895.571594 
	C903.397095,898.280212 900.368896,900.988770 897.748291,903.332764 
	C900.887878,906.484314 903.522888,909.129333 906.376587,911.993958 
	C908.366333,909.907410 910.914001,907.890930 912.548828,905.298767 
	C913.703491,903.468018 914.729553,900.092285 913.823425,898.777710 
	C912.546448,896.925232 909.428894,896.341431 906.425354,895.571594 
z"/>
<path fill="#0E0C0B" opacity="1.000000" stroke="none" 
	d="
M674.870544,1044.238281 
	C674.437378,1042.016235 674.067322,1040.241211 673.667969,1038.325439 
	C667.779480,1039.176270 662.062561,1040.002441 655.917358,1040.890503 
	C656.789917,1047.336792 657.624512,1053.502319 658.516602,1060.092773 
	C654.362793,1060.740112 650.491516,1061.343506 646.007202,1062.042358 
	C643.678040,1046.093384 641.385193,1030.393677 639.006775,1014.107422 
	C643.146729,1013.434021 647.149719,1012.782898 651.565979,1012.064514 
	C652.528198,1018.360596 653.448547,1024.382812 654.456238,1030.976318 
	C660.340820,1030.137939 666.124207,1029.313965 672.379639,1028.422729 
	C671.516724,1021.954895 670.711853,1015.922302 669.858765,1009.528076 
	C674.065491,1008.919495 677.950623,1008.357361 682.415588,1007.711365 
	C684.739563,1023.729309 687.016724,1039.424683 689.371033,1055.651855 
	C685.208740,1056.265137 681.349304,1056.833740 676.777771,1057.507202 
	C676.137085,1053.052856 675.535339,1048.868896 674.870544,1044.238281 
z"/>
<path fill="#0E0B0A" opacity="1.000000" stroke="none" 
	d="
M891.479858,942.706177 
	C895.175476,955.048523 890.075806,965.652222 877.905457,971.641968 
	C867.731567,976.649170 856.343079,973.101562 848.769531,962.566040 
	C837.198547,946.469360 844.473938,927.759399 863.991577,923.615723 
	C870.884583,922.152344 877.108093,924.412231 881.830994,929.134949 
	C885.612793,932.916687 888.196411,937.896606 891.479858,942.706177 
M854.931274,943.719360 
	C855.275024,951.618164 859.896851,956.913696 865.973755,961.048706 
	C869.836853,963.677307 873.920898,962.991089 877.458740,960.003662 
	C880.862000,957.129822 882.266418,953.315918 880.229919,949.303467 
	C878.236816,945.376709 875.872131,941.386719 872.781311,938.321045 
	C866.174988,931.768738 858.272400,934.017395 854.931274,943.719360 
z"/>
<path fill="#0F0D0C" opacity="1.000000" stroke="none" 
	d="
M729.232300,1025.102051 
	C725.197266,1026.295410 721.556213,1027.392578 717.476196,1028.621948 
	C718.354492,1031.778320 719.182434,1034.753662 720.050537,1037.873291 
	C728.389038,1035.486084 736.342285,1033.209229 744.880188,1030.764893 
	C745.791138,1033.751099 746.680054,1036.665161 747.759766,1040.204468 
	C735.268555,1043.825928 723.084473,1047.358398 710.504089,1051.005859 
	C706.015625,1035.488159 701.599365,1020.219971 697.021423,1004.392883 
	C709.031555,1000.905273 720.905518,997.457153 733.293823,993.859680 
	C734.238647,996.996704 735.116821,999.912354 736.141968,1003.316040 
	C728.008057,1005.711304 720.127563,1008.031921 712.099487,1010.396057 
	C712.990906,1013.407593 713.825867,1016.228577 714.791931,1019.492188 
	C721.168030,1017.702087 727.197998,1016.009094 733.722961,1014.177185 
	C734.591064,1016.918396 735.465210,1019.678345 736.495056,1022.930115 
	C733.966797,1023.694153 731.796509,1024.349976 729.232300,1025.102051 
z"/>
<path fill="#0F0C0B" opacity="1.000000" stroke="none" 
	d="
M519.956604,1007.136047 
	C528.687683,1008.720215 536.991699,1010.254272 545.642944,1011.852478 
	C545.083130,1015.087280 544.582275,1017.981628 543.981079,1021.455444 
	C535.681274,1020.047546 527.583862,1018.673950 519.317261,1017.271667 
	C518.764526,1020.440735 518.255005,1023.361694 517.692993,1026.583862 
	C524.143311,1027.788696 530.312256,1028.941040 537.052979,1030.200317 
	C536.595276,1033.093628 536.146729,1035.929077 535.617615,1039.274048 
	C529.108032,1038.156982 522.936035,1037.097900 516.055420,1035.917236 
	C515.516357,1038.866577 514.974792,1041.830078 514.334900,1045.331299 
	C522.928467,1046.928467 531.173523,1048.460938 539.807251,1050.065552 
	C539.202454,1053.372314 538.652100,1056.381104 538.034668,1059.756836 
	C525.174194,1057.446411 512.684082,1055.202515 499.909851,1052.907593 
	C502.808472,1036.750122 505.613831,1021.112427 508.467346,1005.206360 
	C512.389343,1005.872742 515.959412,1006.479309 519.956604,1007.136047 
z"/>
<path fill="#0E0C0B" opacity="1.000000" stroke="none" 
	d="
M248.512726,857.519592 
	C254.249146,852.953979 259.712463,848.619446 265.345978,844.149780 
	C273.269104,854.058228 280.958588,863.674500 288.868652,873.566528 
	C286.378937,875.621338 283.990295,877.592773 281.245667,879.857910 
	C276.047516,873.389099 270.959442,867.057190 265.546906,860.321533 
	C262.968903,862.366455 260.561768,864.275818 258.043884,866.273071 
	C262.172424,871.475403 266.094849,876.418030 270.411011,881.856812 
	C268.095642,883.731384 265.841309,885.556519 263.212555,887.684814 
	C259.033508,882.499084 254.989594,877.481079 250.721863,872.185303 
	C248.125671,874.270630 245.734680,876.191101 243.199432,878.227417 
	C248.662262,885.108398 253.909409,891.717773 259.306641,898.516113 
	C256.742737,900.581238 254.428619,902.445190 251.644012,904.688049 
	C243.539917,894.571106 235.586395,884.642151 227.405136,874.428833 
	C234.489838,868.757507 241.364700,863.254089 248.512726,857.519592 
z"/>
<path fill="#0E0C0B" opacity="1.000000" stroke="none" 
	d="
M406.813599,979.808960 
	C407.181824,979.440735 407.299744,979.323547 407.417328,979.205933 
	C416.376953,970.246155 416.397705,970.213501 427.046722,976.975159 
	C427.935059,977.539246 428.897491,979.010193 428.798889,979.952393 
	C427.110687,996.084717 425.260620,1012.200012 423.380981,1028.897705 
	C419.745148,1027.166382 416.265991,1026.155884 413.716797,1024.030151 
	C412.391235,1022.924805 411.889099,1019.609131 412.446899,1017.713196 
	C413.759888,1013.250732 412.474030,1010.977173 408.213470,1009.497009 
	C404.943756,1008.361084 401.904236,1006.562622 398.392578,1004.881836 
	C395.903229,1007.630920 393.364868,1010.434143 390.776398,1013.292664 
	C386.782898,1011.375977 383.219482,1009.665710 378.955597,1007.619263 
	C388.367340,998.223877 397.465240,989.141846 406.813599,979.808960 
M416.336121,984.992554 
	C412.448761,989.203003 408.561432,993.413513 404.330353,997.996338 
	C408.181305,999.849609 411.375763,1001.387024 415.192841,1003.223999 
	C415.815918,996.690613 416.377350,990.803650 417.398407,985.169189 
	C417.377014,984.899353 417.355621,984.629456 417.334198,984.359619 
	C417.231903,984.583435 417.129608,984.807312 416.336121,984.992554 
z"/>
<path fill="#100D0C" opacity="1.000000" stroke="none" 
	d="
M611.932678,1036.014893 
	C611.935120,1045.315796 611.935120,1054.118164 611.935120,1063.335571 
	C607.850830,1063.335571 603.834351,1063.335571 599.291748,1063.335571 
	C599.291748,1050.675781 599.291748,1038.112305 599.291748,1025.118652 
	C593.732361,1025.118652 588.667114,1025.118652 583.355835,1025.118652 
	C583.355835,1021.761536 583.355835,1018.828003 583.355835,1015.416687 
	C597.827209,1015.416687 612.372559,1015.416687 627.278625,1015.416687 
	C627.278625,1018.220947 627.278625,1021.273132 627.278625,1024.785278 
	C622.248901,1024.785278 617.336304,1024.785278 611.930237,1024.785278 
	C611.930237,1028.650757 611.930237,1032.083618 611.932678,1036.014893 
z"/>
<path fill="#0D0B0A" opacity="1.000000" stroke="none" 
	d="
M316.187012,943.190186 
	C312.380768,947.610962 308.807159,951.762817 304.885284,956.319458 
	C301.668854,953.579590 298.596405,950.962402 295.205566,948.073975 
	C303.653717,938.199036 311.837555,928.633057 320.266632,918.780396 
	C316.255829,915.288086 312.423737,911.951355 308.388733,908.437988 
	C310.503693,905.935425 312.423859,903.663330 314.736542,900.926819 
	C325.887848,910.480103 336.943451,919.951477 348.423309,929.786316 
	C346.314606,932.265930 344.321594,934.609497 342.024597,937.310486 
	C338.064850,933.949219 334.303802,930.756531 330.026611,927.125732 
	C325.451385,932.436890 320.935547,937.679077 316.187012,943.190186 
z"/>
<path fill="#0E0C0B" opacity="1.000000" stroke="none" 
	d="
M975.364746,861.794312 
	C977.214417,863.196655 978.774780,864.389648 980.697693,865.859802 
	C973.169678,875.768494 965.856445,885.394409 958.314026,895.322083 
	C945.414978,885.519165 932.734863,875.882629 919.690613,865.969360 
	C922.325500,862.480347 924.784790,859.223816 927.373840,855.795532 
	C937.706787,863.628845 947.759644,871.249817 958.129089,879.110840 
	C962.508789,873.386230 966.789856,867.919861 970.907288,862.332764 
	C972.206726,860.569519 973.266541,859.541565 975.364746,861.794312 
z"/>
<path fill="#FCFDFC" opacity="1.000000" stroke="none" 
	d="
M498.207031,187.811981 
	C493.614716,172.196716 489.021210,156.581833 484.434906,140.964813 
	C484.255249,140.353180 484.144440,139.721329 483.900299,138.657501 
	C489.559570,136.990128 495.044159,135.374207 501.017792,133.614197 
	C508.399658,158.806107 515.672424,183.625809 523.068298,208.865448 
	C516.285522,210.898178 509.674316,213.032532 502.955841,214.746231 
	C501.801086,215.040787 499.895386,213.850616 498.833954,212.829361 
	C486.109711,200.586594 473.481842,188.243729 460.818878,175.937241 
	C460.018250,175.159134 459.135529,174.465515 457.446198,172.999420 
	C462.601776,190.401230 467.448212,206.759552 472.458099,223.669601 
	C466.734131,225.384857 461.234772,227.032791 455.192627,228.843384 
	C447.840088,203.742905 440.526276,178.774704 433.118530,153.485718 
	C439.826233,151.534470 446.145874,149.533417 452.570099,147.959045 
	C453.921021,147.627975 456.081787,148.421036 457.149414,149.446045 
	C470.486053,162.250336 483.689911,175.192963 497.350159,188.505066 
	C498.080444,189.052536 498.388397,189.195023 498.696350,189.337524 
	C498.533234,188.829010 498.370117,188.320496 498.207031,187.811981 
z"/>
<path fill="#FCFDFC" opacity="1.000000" stroke="none" 
	d="
M205.990204,332.881989 
	C214.627045,321.609375 222.890305,310.270142 232.202301,299.869934 
	C245.906494,284.564270 267.845673,288.157990 274.043182,306.537476 
	C275.593567,311.135376 274.841797,316.509583 275.173584,321.944611 
	C280.401337,322.508240 286.507141,323.199677 292.620514,323.816254 
	C298.544678,324.413696 304.476654,324.934174 311.456146,325.586731 
	C306.709412,331.557190 302.601471,336.877167 298.268646,342.007172 
	C297.627502,342.766266 295.875763,342.995605 294.719208,342.845062 
	C287.129669,341.857269 279.493347,341.031403 272.011169,339.482025 
	C266.629059,338.367584 262.612793,339.067444 259.946686,344.240448 
	C259.277222,345.539398 258.159576,346.607391 256.909210,348.217773 
	C264.345673,354.147217 271.688416,360.001953 279.294586,366.066711 
	C275.062622,371.375122 271.065216,376.389282 266.782013,381.761963 
	C246.333282,365.413269 226.209442,349.324280 205.990204,332.881989 
M240.378998,335.101624 
	C242.041702,336.411896 243.704422,337.722137 245.701965,339.296265 
	C249.464890,334.251556 253.272507,329.649994 256.502045,324.673279 
	C259.622803,319.864197 258.489929,315.549377 253.920731,312.095551 
	C249.530106,308.776703 245.469727,308.824280 241.513199,312.947510 
	C237.427292,317.205566 233.799911,321.903595 229.770065,326.646759 
	C233.369888,329.529114 236.589981,332.107422 240.378998,335.101624 
z"/>
<path fill="#FDFDFC" opacity="1.000000" stroke="none" 
	d="
M876.701538,311.734253 
	C876.664856,311.148926 876.722839,310.757172 876.949707,310.556335 
	C896.138611,293.569244 915.340576,276.596924 935.395386,258.868866 
	C945.701965,271.478943 956.806641,283.100677 965.543579,296.290741 
	C974.848755,310.338684 966.368591,328.053650 949.744995,331.335846 
	C944.852539,332.301819 939.460205,330.736145 933.338501,330.255432 
	C930.372498,340.633850 927.021240,352.360413 923.433044,364.915955 
	C918.630249,359.447723 914.057129,354.464386 909.821777,349.208801 
	C909.075806,348.283051 909.383118,346.107422 909.817566,344.698151 
	C912.166870,337.076477 914.356384,329.372711 917.320740,321.986115 
	C919.026978,317.734497 918.414429,314.852203 915.154175,312.007294 
	C913.678101,310.719238 912.498596,309.091370 910.872070,307.267273 
	C903.654480,313.590912 896.686707,319.695679 889.294434,326.172363 
	C885.127686,321.423157 881.001343,316.720032 876.701538,311.734253 
M948.468933,308.920746 
	C951.089417,306.024963 951.080566,302.554688 949.105042,299.736725 
	C945.370972,294.409882 941.041382,289.500549 936.842102,284.271820 
	C931.385437,289.126556 926.624084,293.362610 921.682800,297.758850 
	C925.475891,301.966156 928.738831,305.937988 932.372192,309.535797 
	C938.352966,315.458099 941.847046,315.335999 948.468933,308.920746 
z"/>
<path fill="#FDFDFC" opacity="1.000000" stroke="none" 
	d="
M858.424133,286.200867 
	C835.276489,287.345306 814.407837,268.280426 814.929626,247.132355 
	C815.326294,231.054550 832.244568,206.657471 852.275757,204.401535 
	C879.663025,201.317169 903.348572,230.519882 893.089478,255.991028 
	C887.342163,270.260345 877.922729,281.371429 862.283142,285.678040 
	C861.172852,285.983795 859.985046,286.008301 858.424133,286.200867 
M874.043701,248.370377 
	C874.411987,247.445450 874.802734,246.528748 875.145081,245.594315 
	C878.250549,237.117523 876.261597,230.015945 869.491089,225.373077 
	C862.642822,220.676895 854.876221,220.760773 848.679626,227.279770 
	C843.531067,232.696198 839.072937,239.126556 835.747070,245.822144 
	C832.054993,253.254929 834.762390,260.483063 841.180359,265.146973 
	C847.569336,269.789795 855.185608,269.990173 861.233032,264.362946 
	C866.017395,259.911011 869.658813,254.230743 874.043701,248.370377 
z"/>
<path fill="#FDFDFC" opacity="1.000000" stroke="none" 
	d="
M393.097778,174.972351 
	C403.436707,174.858856 411.704620,178.626480 418.464142,185.685333 
	C426.252441,193.818481 431.579529,203.398178 433.020752,214.605850 
	C435.341949,232.656509 425.811249,246.845184 407.112732,254.156265 
	C390.782196,260.541473 375.628967,256.406006 364.931213,242.419540 
	C357.904816,233.233093 353.006012,223.026169 353.459442,211.204132 
	C354.119415,193.997086 364.907318,184.233597 379.627594,178.046326 
	C383.679535,176.343216 388.290863,175.971069 393.097778,174.972351 
M373.174408,210.292130 
	C374.583252,219.439362 378.646759,227.305298 384.941437,233.990067 
	C390.858337,240.273666 398.071075,241.381119 405.262451,237.381851 
	C412.293030,233.472015 414.975647,227.111008 413.093445,218.784409 
	C411.293030,210.819611 407.545135,203.857590 401.876831,198.028519 
	C397.010437,193.024124 391.300262,190.753433 384.296539,193.506775 
	C376.947601,196.395828 373.394165,201.372116 373.174408,210.292130 
z"/>
<path fill="#FCFDFC" opacity="1.000000" stroke="none" 
	d="
M1040.010132,459.397949 
	C1038.731323,455.017334 1037.787476,450.942841 1036.121216,447.188904 
	C1034.728760,444.051605 1032.202148,441.567963 1028.234253,442.508911 
	C1024.100586,443.489166 1023.525696,446.993011 1023.710388,450.403259 
	C1024.079468,457.217346 1024.825317,464.010437 1025.359131,470.816589 
	C1025.501953,472.635773 1025.515625,474.473114 1025.460815,476.298309 
	C1025.183350,485.541199 1021.805969,492.739990 1012.514893,496.174835 
	C1002.684082,499.809143 994.164612,497.676910 986.908630,490.386383 
	C974.310547,477.728058 969.730774,451.426147 977.186829,435.249023 
	C977.387024,434.814758 977.757385,434.458923 978.356628,433.650818 
	C983.415039,435.169342 988.586487,436.721802 993.796143,438.285767 
	C988.666809,450.023865 988.056152,461.408356 993.970215,472.742371 
	C995.620483,475.904938 997.810547,478.467072 1001.742676,477.611115 
	C1005.937561,476.697876 1007.018860,473.325043 1006.794922,469.538757 
	C1006.245239,460.244568 1004.929871,450.950165 1005.061035,441.671936 
	C1005.250977,428.233856 1017.301147,419.124115 1030.225464,422.868500 
	C1035.519531,424.402252 1041.347656,427.615173 1044.655640,431.845154 
	C1056.231201,446.647369 1059.963013,463.297821 1052.655151,481.425598 
	C1052.417358,482.015320 1051.975220,482.522705 1051.482300,483.298401 
	C1046.533691,481.703644 1041.680054,480.139496 1037.523071,478.799835 
	C1038.397583,472.192627 1039.214844,466.017761 1040.010132,459.397949 
z"/>
<path fill="#FDFDFC" opacity="1.000000" stroke="none" 
	d="
M582.274963,123.990723 
	C602.366821,124.347725 621.983887,124.779655 641.861328,125.217323 
	C641.861328,130.496368 641.861328,135.418335 641.861328,140.531296 
	C628.391602,140.531296 615.014648,140.531296 601.277588,140.531296 
	C601.277588,145.378769 601.277588,150.320999 601.277588,156.262634 
	C611.506531,156.262634 622.053711,156.262634 632.830933,156.262634 
	C632.830933,161.836090 632.830933,166.415848 632.830933,171.284973 
	C622.019958,171.284973 611.443542,171.284973 600.476868,171.284973 
	C600.476868,176.384308 600.476868,181.449371 600.476868,187.450943 
	C614.218140,187.450943 627.963196,187.450943 641.932861,187.450943 
	C641.932861,193.299988 641.932861,198.224564 641.932861,202.730774 
	C621.073425,202.730774 600.387146,202.730774 580.143066,202.730774 
	C580.143066,189.039612 580.031555,176.414169 580.175476,163.791611 
	C580.310303,151.965164 580.692200,140.141144 581.032410,128.317978 
	C581.073425,126.894348 581.533997,125.482796 582.274963,123.990723 
z"/>
<path fill="#FDFDFC" opacity="1.000000" stroke="none" 
	d="
M816.335754,179.760895 
	C824.076721,190.474701 821.395020,201.742004 813.844910,211.853363 
	C807.888672,219.830170 797.246582,222.252533 786.150757,218.322922 
	C779.284851,215.891327 772.624023,212.880661 765.458923,209.962051 
	C761.937500,217.570663 758.403870,225.205627 754.602417,233.419281 
	C748.525208,230.649368 742.581604,227.940384 736.117310,224.994080 
	C747.008789,201.170410 757.750244,177.674957 768.735657,153.645859 
	C776.740417,157.280334 784.556946,160.787262 792.337097,164.373032 
	C800.935608,168.335968 809.851257,171.819870 816.335754,179.760895 
M778.596558,181.106995 
	C776.412109,185.889297 774.227661,190.671585 771.798035,195.990540 
	C777.166077,198.150528 782.121094,200.448380 787.275818,202.136688 
	C792.931396,203.989105 796.904358,201.942245 799.462646,196.556412 
	C801.976013,191.265167 801.055237,186.641296 796.085693,183.562363 
	C791.379395,180.646591 786.239441,178.430801 781.111511,175.816010 
	C780.178711,177.772873 779.544495,179.103302 778.596558,181.106995 
z"/>
<path fill="#FCFDFC" opacity="1.000000" stroke="none" 
	d="
M710.804993,171.824493 
	C709.286621,173.149704 708.023132,174.226761 706.828552,175.245026 
	C712.700439,190.355682 718.352478,204.900452 724.400269,220.463699 
	C716.356018,218.673203 708.994507,217.156250 701.728333,215.271820 
	C700.761292,215.021042 700.058838,212.979538 699.606567,211.641357 
	C697.000061,203.929382 694.505676,196.179535 691.692139,187.583527 
	C686.138428,193.704117 680.751770,199.215469 675.897766,205.161636 
	C673.304016,208.339188 670.778931,209.044800 666.982117,207.965775 
	C661.569885,206.427612 656.020691,205.371323 649.833008,203.948990 
	C660.449097,193.855209 670.454041,184.127151 680.739868,174.705750 
	C683.499512,172.178024 684.075073,170.141235 682.707336,166.636627 
	C677.774292,153.996872 673.190308,141.220840 668.187866,127.722870 
	C675.910461,129.425522 682.884888,130.793381 689.735107,132.625427 
	C691.012939,132.967163 692.236267,135.027985 692.726501,136.541107 
	C695.073730,143.786423 697.160339,151.116211 699.588318,159.249466 
	C705.177612,153.073410 710.476013,147.410370 715.528809,141.536163 
	C717.405518,139.354446 719.076416,138.715500 721.960632,139.524658 
	C727.487427,141.075226 733.169434,142.072632 737.819641,143.088287 
	C728.996277,152.481445 720.028015,162.028870 710.804993,171.824493 
z"/>
<path fill="#FCFCFC" opacity="1.000000" stroke="none" 
	d="
M170.846283,405.983215 
	C177.705978,407.325165 181.066772,411.605621 183.891037,417.347534 
	C191.953461,433.738892 200.588593,449.848572 209.519958,467.074982 
	C215.029678,452.445068 220.185028,438.756134 225.410019,424.882263 
	C230.196671,426.676392 234.690765,428.360870 239.748306,430.256531 
	C231.919617,451.222015 224.163406,471.993347 216.328751,492.974823 
	C208.175842,490.838165 201.570465,488.208313 197.641739,479.460693 
	C190.233643,462.966125 181.293274,447.159668 172.489304,430.097198 
	C167.288620,443.916748 162.427109,456.835052 157.349884,470.326538 
	C152.592453,468.561890 148.011673,466.862762 142.977966,464.995636 
	C150.550217,444.728363 158.023834,424.725067 165.700119,404.179352 
	C167.451416,404.803314 168.953964,405.338654 170.846283,405.983215 
z"/>
<path fill="#FCFDFC" opacity="1.000000" stroke="none" 
	d="
M336.573914,283.720184 
	C344.344025,277.067139 345.195465,273.745514 341.720612,263.049194 
	C347.270416,260.539276 352.902618,257.992065 358.860321,255.297668 
	C364.177887,267.117279 362.618561,277.578186 355.279816,287.490601 
	C344.055878,302.650665 326.469208,308.939850 311.078430,303.175934 
	C292.326996,296.153412 278.343231,273.213562 281.877045,255.272079 
	C285.701385,235.855545 309.677185,219.614395 327.206726,224.672638 
	C329.873047,225.442017 332.355347,226.849213 335.470245,228.198563 
	C332.388214,234.051880 329.494354,239.547867 326.990448,244.303207 
	C322.428986,243.328949 318.175812,241.239380 314.332886,241.827988 
	C304.053650,243.402420 298.001740,253.845276 301.429443,263.656311 
	C304.654297,272.886658 310.816254,280.099701 319.366364,284.963470 
	C325.088593,288.218567 330.841187,287.688904 336.573914,283.720184 
z"/>
<path fill="#FCFDFC" opacity="1.000000" stroke="none" 
	d="
M943.675537,398.384369 
	C942.494263,396.349640 941.506287,394.618103 940.209900,392.346100 
	C958.156494,381.870514 976.024353,371.440887 994.340027,360.749847 
	C990.028320,353.291809 985.830444,346.030640 981.492493,338.527100 
	C986.061523,335.858582 990.329712,333.365814 995.041992,330.613647 
	C1007.110229,351.329163 1019.053894,371.830933 1031.123047,392.548126 
	C1026.627686,395.178101 1022.344177,397.684082 1017.573975,400.474762 
	C1013.297485,393.179291 1009.132568,386.074036 1004.643860,378.416565 
	C986.554993,388.926605 968.653015,399.328094 950.434448,409.913483 
	C948.195007,406.084473 946.031921,402.386017 943.675537,398.384369 
z"/>
<path fill="#FCFDFC" opacity="1.000000" stroke="none" 
	d="
M237.998520,411.979736 
	C218.234314,401.036041 198.804657,390.246521 179.015839,379.257538 
	C182.344437,373.252319 185.521606,367.520264 188.882843,361.456146 
	C211.918320,374.224915 234.529663,386.758606 257.498047,399.490173 
	C254.175385,405.499298 250.990250,411.259705 247.645950,417.307983 
	C244.368378,415.487000 241.350723,413.810425 237.998520,411.979736 
z"/>
<path fill="#E6E7E8" opacity="1.000000" stroke="none" 
	d="
M827.177917,986.897217 
	C827.596313,987.408569 827.723572,988.252686 827.850830,989.096863 
	C827.465820,988.910645 827.080872,988.724426 826.531433,988.241821 
	C826.540344,987.706970 826.713623,987.468506 827.177917,986.897217 
z"/>
<path fill="#E6E7E8" opacity="1.000000" stroke="none" 
	d="
M806.744873,980.774414 
	C806.370361,980.822693 806.239441,980.635437 806.108521,980.448120 
	C806.401855,980.478394 806.695129,980.508606 806.744873,980.774414 
z"/>
<path fill="#E1E2E3" opacity="1.000000" stroke="none" 
	d="
M357.651733,959.842773 
	C359.479584,957.056396 361.092987,954.572083 362.967407,951.685852 
	C366.036407,953.763855 368.945557,955.582581 371.683899,957.629761 
	C374.500854,959.735718 375.021637,962.487305 373.082916,965.482788 
	C371.124695,968.508362 368.383911,969.011353 365.320679,967.346985 
	C362.850128,966.004578 360.426117,964.537476 358.164276,962.876709 
	C357.572418,962.442139 357.661133,961.080627 357.651733,959.842773 
z"/>
<path fill="#E3E4E5" opacity="1.000000" stroke="none" 
	d="
M475.110016,1022.843628 
	C470.447235,1033.106567 467.075348,1034.161499 454.036163,1029.444458 
	C456.906982,1020.423096 459.784943,1011.379211 462.651062,1002.372620 
	C476.057678,1004.201843 479.314240,1009.493225 475.110016,1022.843628 
z"/>
<path fill="#E3E4E5" opacity="1.000000" stroke="none" 
	d="
M977.679382,808.967834 
	C979.486877,809.515381 980.918274,809.950439 982.281860,810.541870 
	C995.346558,816.207947 997.155090,822.779480 988.610046,834.850220 
	C980.402222,830.119202 972.153259,825.364441 963.689819,820.486084 
	C967.067078,814.914185 969.025208,808.279541 977.679382,808.967834 
z"/>
<path fill="#E3E4E5" opacity="1.000000" stroke="none" 
	d="
M906.761841,895.393433 
	C909.428894,896.341431 912.546448,896.925232 913.823425,898.777710 
	C914.729553,900.092285 913.703491,903.468018 912.548828,905.298767 
	C910.914001,907.890930 908.366333,909.907410 906.376587,911.993958 
	C903.522888,909.129333 900.887878,906.484314 897.748291,903.332764 
	C900.368896,900.988770 903.397095,898.280212 906.761841,895.393433 
z"/>
<path fill="#E4E5E5" opacity="1.000000" stroke="none" 
	d="
M854.963135,943.314392 
	C858.272400,934.017395 866.174988,931.768738 872.781311,938.321045 
	C875.872131,941.386719 878.236816,945.376709 880.229919,949.303467 
	C882.266418,953.315918 880.862000,957.129822 877.458740,960.003662 
	C873.920898,962.991089 869.836853,963.677307 865.973755,961.048706 
	C859.896851,956.913696 855.275024,951.618164 854.963135,943.314392 
z"/>
<path fill="#DCDDDD" opacity="1.000000" stroke="none" 
	d="
M416.938782,984.916748 
	C416.377350,990.803650 415.815918,996.690613 415.192841,1003.223999 
	C411.375763,1001.387024 408.181305,999.849609 404.330353,997.996338 
	C408.561432,993.413513 412.448761,989.203003 416.658447,984.984131 
	C416.980743,984.975708 416.938782,984.916748 416.938782,984.916748 
z"/>
<path fill="#DCDDDD" opacity="1.000000" stroke="none" 
	d="
M417.004028,985.003418 
	C417.129608,984.807312 417.231903,984.583435 417.334229,984.359619 
	C417.355621,984.629456 417.377014,984.899353 417.168579,985.042969 
	C416.938782,984.916748 416.980743,984.975708 417.004028,985.003418 
z"/>
<path fill="#1E6333" opacity="1.000000" stroke="none" 
	d="
M498.014038,187.982269 
	C498.370117,188.320496 498.533234,188.829010 498.696350,189.337524 
	C498.388397,189.195023 498.080444,189.052536 497.608643,188.706863 
	C497.570190,188.386627 497.695618,188.269577 498.014038,187.982269 
z"/>
<path fill="#226635" opacity="1.000000" stroke="none" 
	d="
M240.094528,334.893677 
	C236.589981,332.107422 233.369888,329.529114 229.770065,326.646759 
	C233.799911,321.903595 237.427292,317.205566 241.513199,312.947510 
	C245.469727,308.824280 249.530106,308.776703 253.920731,312.095551 
	C258.489929,315.549377 259.622803,319.864197 256.502045,324.673279 
	C253.272507,329.649994 249.464890,334.251556 245.701965,339.296265 
	C243.704422,337.722137 242.041702,336.411896 240.094528,334.893677 
z"/>
<path fill="#246737" opacity="1.000000" stroke="none" 
	d="
M948.232483,309.201050 
	C941.847046,315.335999 938.352966,315.458099 932.372192,309.535797 
	C928.738831,305.937988 925.475891,301.966156 921.682800,297.758850 
	C926.624084,293.362610 931.385437,289.126556 936.842102,284.271820 
	C941.041382,289.500549 945.370972,294.409882 949.105042,299.736725 
	C951.080566,302.554688 951.089417,306.024963 948.232483,309.201050 
z"/>
<path fill="#216534" opacity="1.000000" stroke="none" 
	d="
M873.925781,248.733185 
	C869.658813,254.230743 866.017395,259.911011 861.233032,264.362946 
	C855.185608,269.990173 847.569336,269.789795 841.180359,265.146973 
	C834.762390,260.483063 832.054993,253.254929 835.747070,245.822144 
	C839.072937,239.126556 843.531067,232.696198 848.679626,227.279770 
	C854.876221,220.760773 862.642822,220.676895 869.491089,225.373077 
	C876.261597,230.015945 878.250549,237.117523 875.145081,245.594315 
	C874.802734,246.528748 874.411987,247.445450 873.925781,248.733185 
z"/>
<path fill="#216535" opacity="1.000000" stroke="none" 
	d="
M373.171082,209.869232 
	C373.394165,201.372116 376.947601,196.395828 384.296539,193.506775 
	C391.300262,190.753433 397.010437,193.024124 401.876831,198.028519 
	C407.545135,203.857590 411.293030,210.819611 413.093445,218.784409 
	C414.975647,227.111008 412.293030,233.472015 405.262451,237.381851 
	C398.071075,241.381119 390.858337,240.273666 384.941437,233.990067 
	C378.646759,227.305298 374.583252,219.439362 373.171082,209.869232 
z"/>
<path fill="#246737" opacity="1.000000" stroke="none" 
	d="
M778.753418,180.770370 
	C779.544495,179.103302 780.178711,177.772873 781.111511,175.816010 
	C786.239441,178.430801 791.379395,180.646591 796.085693,183.562363 
	C801.055237,186.641296 801.976013,191.265167 799.462646,196.556412 
	C796.904358,201.942245 792.931396,203.989105 787.275818,202.136688 
	C782.121094,200.448380 777.166077,198.150528 771.798035,195.990540 
	C774.227661,190.671585 776.412109,185.889297 778.753418,180.770370 
z"/>
</svg>